/* XPM */
static char * menger_icon_xpm[] = {
"32 32 201 2",
"  	c #9A9A9A",
". 	c #C4C4C4",
"+ 	c #C6C6C6",
"@ 	c #B6B6B6",
"# 	c #C2C2C2",
"$ 	c #BBBBBB",
"% 	c #BABABA",
"& 	c #BEBEBE",
"* 	c #BCBCBC",
"= 	c #B8B8B8",
"- 	c #BDBDBD",
"; 	c #B9B9B9",
"> 	c #C1C1C1",
", 	c #BFBFBF",
"' 	c #C0C0C0",
") 	c #B7B7B7",
"! 	c #C7C7C7",
"~ 	c #B5B5B5",
"{ 	c #C5C5C5",
"] 	c #646464",
"^ 	c #989898",
"/ 	c #E4E4E4",
"( 	c #3F3F3F",
"_ 	c #C9C9C9",
": 	c #E8E8E8",
"< 	c #717171",
"[ 	c #8D8D8D",
"} 	c #ECECEC",
"| 	c #CDCDCD",
"1 	c #323232",
"2 	c #EEEEEE",
"3 	c #858585",
"4 	c #898989",
"5 	c #E6E6E6",
"6 	c #CACACA",
"7 	c #444444",
"8 	c #909090",
"9 	c #797979",
"0 	c #E3E3E3",
"a 	c #9B9B9B",
"b 	c #676767",
"c 	c #C3C3C3",
"d 	c #878787",
"e 	c #B1B1B1",
"f 	c #F2F2F2",
"g 	c #EAEAEA",
"h 	c #757575",
"i 	c #DEDEDE",
"j 	c #A8A8A8",
"k 	c #EFEFEF",
"l 	c #D7D7D7",
"m 	c #6E6E6E",
"n 	c #DCDCDC",
"o 	c #DDDDDD",
"p 	c #AFAFAF",
"q 	c #A1A1A1",
"r 	c #F0F0F0",
"s 	c #D3D3D3",
"t 	c #707070",
"u 	c #D8D8D8",
"v 	c #EDEDED",
"w 	c #ABABAB",
"x 	c #8F8F8F",
"y 	c #E2E2E2",
"z 	c #787878",
"A 	c #D6D6D6",
"B 	c #B0B0B0",
"C 	c #B4B4B4",
"D 	c #F4F4F4",
"E 	c #EBEBEB",
"F 	c #A0A0A0",
"G 	c #929292",
"H 	c #CFCFCF",
"I 	c #DFDFDF",
"J 	c #E1E1E1",
"K 	c #A6A6A6",
"L 	c #9F9F9F",
"M 	c #9D9D9D",
"N 	c #979797",
"O 	c #E9E9E9",
"P 	c #E7E7E7",
"Q 	c #E0E0E0",
"R 	c #959595",
"S 	c #D4D4D4",
"T 	c #9E9E9E",
"U 	c #070707",
"V 	c #040404",
"W 	c #000000",
"X 	c #D2D2D2",
"Y 	c #D5D5D5",
"Z 	c #464646",
"` 	c #030303",
" .	c #262626",
"..	c #DADADA",
"+.	c #090909",
"@.	c #060606",
"#.	c #CECECE",
"$.	c #414141",
"%.	c #7E7E7E",
"&.	c #101010",
"*.	c #0A0A0A",
"=.	c #515151",
"-.	c #A9A9A9",
";.	c #484848",
">.	c #242424",
",.	c #080808",
"'.	c #6F6F6F",
").	c #595959",
"!.	c #0C0C0C",
"~.	c #050505",
"{.	c #CBCBCB",
"].	c #919191",
"^.	c #535353",
"/.	c #202020",
"(.	c #DBDBDB",
"_.	c #939393",
":.	c #F6F6F6",
"<.	c #E5E5E5",
"[.	c #727272",
"}.	c #A5A5A5",
"|.	c #5E5E5E",
"1.	c #818181",
"2.	c #999999",
"3.	c #CCCCCC",
"4.	c #4B4B4B",
"5.	c #C8C8C8",
"6.	c #F3F3F3",
"7.	c #808080",
"8.	c #4F4F4F",
"9.	c #7D7D7D",
"0.	c #606060",
"a.	c #969696",
"b.	c #8B8B8B",
"c.	c #B2B2B2",
"d.	c #626262",
"e.	c #F7F7F7",
"f.	c #A4A4A4",
"g.	c #767676",
"h.	c #D9D9D9",
"i.	c #AEAEAE",
"j.	c #AAAAAA",
"k.	c #A7A7A7",
"l.	c #ADADAD",
"m.	c #A2A2A2",
"n.	c #0B0B0B",
"o.	c #010101",
"p.	c #020202",
"q.	c #393939",
"r.	c #F1F1F1",
"s.	c #6B6B6B",
"t.	c #0D0D0D",
"u.	c #4C4C4C",
"v.	c #686868",
"w.	c #3C3C3C",
"x.	c #2C2C2C",
"y.	c #272727",
"z.	c #2A2A2A",
"A.	c #292929",
"B.	c #9C9C9C",
"C.	c #B3B3B3",
"D.	c #ACACAC",
"E.	c #0E0E0E",
"F.	c #F8F8F8",
"G.	c #303030",
"H.	c #1F1F1F",
"I.	c #D0D0D0",
"J.	c #252525",
"K.	c #3D3D3D",
"L.	c #6D6D6D",
"M.	c #474747",
"N.	c #151515",
"O.	c #4E4E4E",
"P.	c #656565",
"Q.	c #3A3A3A",
"R.	c #111111",
"S.	c #A3A3A3",
"T.	c #747474",
"U.	c #777777",
"V.	c #8E8E8E",
"W.	c #5D5D5D",
"X.	c #7C7C7C",
"Y.	c #868686",
"Z.	c #5F5F5F",
"`.	c #D1D1D1",
" +	c #F5F5F5",
".+	c #282828",
"++	c #121212",
"@+	c #2D2D2D",
"#+	c #141414",
"$+	c #5C5C5C",
"%+	c #424242",
"&+	c #222222",
"*+	c #1C1C1C",
"=+	c #949494",
"-+	c #6A6A6A",
";+	c #848484",
">+	c #383838",
",+	c #828282",
"'+	c #888888",
")+	c #434343",
"!+	c #737373",
"  . + @ @ # $ % & * $ = # - ; & > $ , ; ' % & * % ) - ! ~ { .   ",
"> ] ^ / { ( _ : < [ } | 1 + 2 3 4 5 6 7 # 5 8 9 0 | ( * } a b c ",
"# d e f g h i 2 ^ j k l m n o p q r s t u v w x o y z A 2 B 4 { ",
"C D E - [ F G H : 2 o I k J K L M N O P J Q y r H x L R # E } @ ",
"# $ S T U V W ; n X Y J % g Z ` `  .o $ J ....H > W +.@.R #.+ $ ",
"* $.%.R &.*.` _ =.%.5 u U -.;.W @.>.6 ,., } '.).- ` !.~.  %.7 - ",
") {.S ].W W W - ..S ..J c ..^.W W /.5 % (./ s X p W V @._.i | - ",
". E P s @ . > 6 I / ..o :.<.* ; _ ; y O / l O O P - ) C X ..0 - ",
"; [.}.Q n |.s P 1.2.E 3.4.5.6.}.7.r c 8.#.5 N 9.i A 0.{.} a.9.c ",
"! b.c.0 X z A <.2.L E A d.A e.~ M i o '.5.Q f.  n o g...I $ 8 # ",
"p E v 0 ..g h.Y <.f # i.* j.k.l.c.m.q % C s g g o A 0 I o E Q , ",
"% X | Q Q , / 0 3.u m.V ` ` n.o.p.,.p.*.W B S 5.: n & 0 0 ..| - ",
", q.m r.) +.; : 4.s., ~.o.o.o.o.W o.o.p.t.k.m u.: @ /.R r v.w.% ",
"- #.s / <.' i I {.A j.p.o.o.o.o.o.W @.p.` l...5.Q Q {.n J n | & ",
"p 0 i a x.y.1 B 5 v a V o.o.o.o.o.W W V U }.0 O ~ z.A.1 ^ 2 g = ",
"_ d e 8 p.W W c B.}.C.p.o.o.o.o.o.o.+.o.~.B D.a & W p.W M f.3 c ",
"& x   L ` U W & B.-.D.@.W o.o.W W V W U ` c.k.^ ' W E.W a.k.4 ; ",
"= y F.x G.y.H.I./ y k.W *.W W ` p.o.V W @.K <.0 - /.A.J.T g P & ",
"* ! u 0 I 6 I <.c J q V W V o.~.W ~.W ~.W i.s 3.Q Q ! J 0 (._ & ",
"$ K.L.O > !.; : M.v.= U p.o.W ` ` W ,.N.o.k.h O.0 ) *.}.<.P.Q.* ",
"c c l y y - (.O + A l.o.~.,.R.o.` U V ` ,.e A . I y & : / h.| c ",
"~ v r i (.f 0 l g <.5.c.p B m.= c.S.p }.p | y 5 i J u D o v / ' ",
"' x -.5 ..m X g _.C.: S L.h.5 K -.O h.T.A <.i.  I (.U.5.O l.V.' ",
"* U.M g 3.W.l 0 X.a I H 4._ : a N 5 5.O.+ : R Y.i S Z.`.0 F z % ",
"* 5 0 H > _ @ (.P  +s ..v Q | ~ % . J I E l J (.i & - @ h.o P > ",
"> {.(.2.W W W ' I.I.I : ; i .+W W H.J * Q o ..l = W W W x o 3.e ",
"~ $.[.T ++U W ' v.T.5 @ ,.| H.V p.@+' #+C 0 m $+@ @.W E.^ h %+> ",
"c 5.u x @.p.W - { I.r.} K 0 &+o.!.*+/ ) ..k 6 #.= o.*.p.G h.c = ",
"% } 2 c F a =+6 E O u h.f o B.M N a Q r.5 (.P } H G N ^ . : 2 = ",
"% N e 5 3.h A 2   -.r n -+/ :.k.-.2 s b l g p L / ..;+Y 2 C [ 6 ",
"+ P.4 f 3.7 6 I 9 V.5 c >+6 <.,+'+: _ )+3.I ^ !+: _ $.' <.N v.& ",
"T c ' = ' ' , % , # & - @ $ C.' ' C > ' ' $ ' # & , $ ! - - { B."};
